<svg class="animated" id="freepik_stories-road-cycling" xmlns="http://www.w3.org/2000/svg" viewBox="0 0 425.93 428.57" version="1.1" xmlns:xlink="http://www.w3.org/1999/xlink" xmlns:svgjs="http://svgjs.com/svgjs"><style>svg#freepik_stories-road-cycling:not(.animated) .animable {opacity: 0;}svg#freepik_stories-road-cycling.animated #freepik--background-complete--inject-44 {animation: 1.5s Infinite  linear floating;animation-delay: 0s;}svg#freepik_stories-road-cycling.animated #freepik--Mountains--inject-44 {animation: 3s Infinite  linear floating;animation-delay: 0s;}svg#freepik_stories-road-cycling.animated #freepik--Character--inject-44 {animation: 1.5s Infinite  linear floating;animation-delay: 0s;}svg#freepik_stories-road-cycling.animated #freepik--Lines--inject-44 {animation: 1.5s Infinite  linear shake;animation-delay: 0s;}            @keyframes floating {                0% {                    opacity: 1;                    transform: translateY(0px);                }                50% {                    transform: translateY(-10px);                }                100% {                    opacity: 1;                    transform: translateY(0px);                }            }                    @keyframes shake {                10%, 90% {                    transform: translate3d(-1px, 0, 0);                  }                  20%, 80% {                    transform: translate3d(2px, 0, 0);                  }                  30%, 50%, 70% {                    transform: translate3d(-4px, 0, 0);                  }                  40%, 60% {                    transform: translate3d(4px, 0, 0);                  }            }        </style><g id="freepik--background-complete--inject-44" class="animable" style="transform-origin: 249.984px 152.127px;"><g id="el716whlj9hl9"><path d="M273.55,119c4.78,0,123.93-.83,157.58-.83,2.36,0-.62-4.07-1.91-4.35-4.14-.91-8.45-1-12.66-1.39a41.18,41.18,0,0,1-12.06-3c-3.31-1.39-6.62-3-10.2-3.57-6.94-1.09-13,2.67-19.52,4.33A14.73,14.73,0,0,1,363,108.53c-3-1.81-5.74-4-8.89-5.56a48.72,48.72,0,0,0-38.93-1.79,45.94,45.94,0,0,0-8.52,4.36c-3.18,2.09-5.91,4.75-9.1,6.81-7.06,4.57-15.78,3.08-23.48,5.7C273.61,118.19,273.14,119,273.55,119Z" style="fill: rgb(235, 235, 235); transform-origin: 352.703px 108.481px;" class="animable"></path></g><g id="ell2fjhhgdwl"><path d="M132.47,65c6.32,0,112.55.7,119.22.49.48,0,.74-.72.26-1-4.2-2.08-9-1.66-13.35-3.14-2.58-.86-4.16-2.55-5.94-4.48a12.34,12.34,0,0,0-5.53-3.6,11.6,11.6,0,0,0-6-.19c-2.15.51-4,1.75-6.08,2.52-5.1,1.93-10.06.1-13.71-3.68-3-3.11-6-6-10-7.72a13.31,13.31,0,0,0-10.64-.15c-3.9,1.76-6.57,5.32-10.23,7.45-4.34,2.54-9.53,1.94-14.32,2.7s-8.47,4.8-12.68,7.13a9,9,0,0,1-4.58,1.42c-.94,0-1.86-.28-2.79-.4-1.44-.18-2.82-.14-3.79,1.07C132,63.73,132.06,65,132.47,65Z" style="fill: rgb(235, 235, 235); transform-origin: 192.159px 54.2717px;" class="animable"></path></g><g id="ell07feoghxkc"><path d="M60.37,260.71c6.32,0,112.55.7,119.22.49.48,0,.74-.72.26-1-4.21-2.08-9-1.66-13.35-3.14-2.58-.86-4.16-2.55-5.94-4.48A12.34,12.34,0,0,0,155,249a11.6,11.6,0,0,0-6-.19c-2.15.51-4,1.75-6.08,2.52-5.11,1.93-10.06.1-13.71-3.68-3-3.11-6-6-10-7.72a13.31,13.31,0,0,0-10.64-.15c-3.9,1.77-6.57,5.32-10.23,7.45C94,249.79,88.78,249.19,84,250s-8.48,4.8-12.68,7.13a9,9,0,0,1-4.58,1.42c-.94,0-1.86-.28-2.79-.4-1.45-.18-2.82-.14-3.79,1.07C59.91,259.47,60,260.71,60.37,260.71Z" style="fill: rgb(235, 235, 235); transform-origin: 120.062px 249.992px;" class="animable"></path></g><g id="eltha0nwl0f4l"><path d="M47.68,89.63c4.61,0,82.17.51,87,.35.35,0,.53-.52.19-.69-3.08-1.53-6.56-1.22-9.76-2.3a10.34,10.34,0,0,1-4.33-3.27,9,9,0,0,0-4-2.63A8.49,8.49,0,0,0,112.4,81,39.14,39.14,0,0,0,108,82.79c-3.73,1.41-7.35.07-10-2.68-2.19-2.27-4.35-4.42-7.33-5.64a9.72,9.72,0,0,0-7.77-.11c-2.85,1.29-4.8,3.88-7.47,5.44-3.17,1.85-7,1.41-10.46,2s-6.18,3.51-9.25,5.2a6.57,6.57,0,0,1-3.35,1,20.24,20.24,0,0,1-2-.29,2.79,2.79,0,0,0-2.77.78C47.35,88.72,47.38,89.63,47.68,89.63Z" style="fill: rgb(235, 235, 235); transform-origin: 91.2416px 81.8074px;" class="animable"></path></g><g id="el3dqz1bwd1cg"><path d="M172.11,153.65c4.61,0,82.17.51,87.05.36.35,0,.53-.53.19-.7-3.08-1.52-6.56-1.22-9.76-2.29a10.51,10.51,0,0,1-4.33-3.27,9,9,0,0,0-4-2.64,8.6,8.6,0,0,0-4.39-.14,37.45,37.45,0,0,0-4.44,1.85c-3.73,1.4-7.35.07-10-2.69-2.19-2.27-4.35-4.42-7.33-5.64a9.72,9.72,0,0,0-7.77-.11c-2.85,1.29-4.8,3.88-7.47,5.44-3.17,1.85-7,1.42-10.46,2s-6.18,3.51-9.25,5.21a6.55,6.55,0,0,1-3.34,1,20,20,0,0,1-2-.29,2.77,2.77,0,0,0-2.77.79C171.78,152.74,171.81,153.65,172.11,153.65Z" style="fill: rgb(235, 235, 235); transform-origin: 215.697px 145.831px;" class="animable"></path></g><g id="elsqiosgodawh"><path d="M365.17,201.31c4.61,0,82.17.51,87,.35a.38.38,0,0,0,.19-.7c-3.07-1.52-6.56-1.21-9.75-2.29a10.37,10.37,0,0,1-4.34-3.27,8.92,8.92,0,0,0-4-2.63,8.53,8.53,0,0,0-4.4-.14,36.43,36.43,0,0,0-4.44,1.84c-3.72,1.41-7.34.07-10-2.68-2.2-2.28-4.36-4.42-7.34-5.64a9.72,9.72,0,0,0-7.77-.11c-2.84,1.29-4.79,3.88-7.47,5.44-3.17,1.85-6.95,1.41-10.45,2s-6.19,3.5-9.25,5.2a6.6,6.6,0,0,1-3.35,1c-.69,0-1.36-.21-2-.29a2.79,2.79,0,0,0-2.77.78C364.83,200.4,364.87,201.31,365.17,201.31Z" style="fill: rgb(235, 235, 235); transform-origin: 408.721px 193.487px;" class="animable"></path></g></g><g id="freepik--Mountains--inject-44" class="animable animator-active" style="transform-origin: 251.37px 289.711px;"><g id="elvkwzaxr3a8k"><path d="M392,267.64c-8.13-7.13-31-66.69-47.57-108.3-2-5-9.65-.91-11.48-5.58-6.2-15.78-11.22-28.89-13.82-35.64-5.29-13.77-35.77-7.42-40.75,0-2.56,3.81-20.65,60-32.16,86.62-3.7,8.55-28,14-38,18.4-9.64,4.24-19.74,84.16-26.27,91.08-25.57,27.1-68.35,137.57-76.57,143.46l348.92-70.94S402.69,277,392,267.64Z" style="fill: rgb(0, 0, 0); transform-origin: 279.84px 283.841px;" class="animable"></path></g><g id="el8pik35xkyy2"><path d="M392,267.64c-8.13-7.13-31-66.69-47.57-108.3-2-5-9.65-.91-11.48-5.58-6.2-15.78-11.22-28.89-13.82-35.64-5.29-13.77-35.77-7.42-40.75,0-2.56,3.81-20.65,60-32.16,86.62-3.7,8.55-28,14-38,18.4-9.64,4.24-19.74,84.16-26.27,91.08-25.57,27.1-68.35,137.57-76.57,143.46l348.92-70.94S402.69,277,392,267.64Z" style="opacity: 0.7; transform-origin: 279.84px 283.841px;" class="animable"></path></g><g id="ell6ahq07dtig"><path d="M455.05,381.39v0a0,0,0,0,1,0,0Z" style="opacity: 0.4; transform-origin: 455.05px 381.39px;" class="animable"></path></g><g id="el9p1l70jonzg"><path d="M455.05,381.42" style="opacity: 0.2; transform-origin: 455.05px 381.42px;" class="animable"></path></g><g id="eld3jyzw1dx09"><g style="opacity: 0.2; transform-origin: 333.255px 272.385px;" class="animable"><g id="elxv47st18b0n"><path d="M454.33,386.74l-211,42.9c12.58-13.85,42.81-92.07,45.15-98.51,3.08-8.43,7.07-69.42,8.22-77.5s22.46-56.41,23.35-65.11-2.64-72.08-2.71-73.39h0l0,.06a1.52,1.52,0,0,1,.22.27,2.45,2.45,0,0,1,.26.35l.25.35.22.35c.08.13.16.27.23.41l.09.16.18.38.12.26c.06.15.12.27.17.43.12.31.25.63.38,1s.28.71.42,1.08l.44,1.15c.15.39.31.8.47,1.23,2.81,7.29,7.07,18.36,12.11,31.19a3.38,3.38,0,0,0,.22.47,2.27,2.27,0,0,0,.25.38,2.52,2.52,0,0,0,.33.39,2.09,2.09,0,0,0,.28.24s.68,30.56.53,33.27-6.3,22.11-6.66,26.32.55,20.43,0,23.9c-.34,2-6.5,23.24-8.11,28.45-.45,1.41,4.42.48,4.55.48.62,0,6.37-18.88,7.47-20.23s2-26.73,2.79-28.65,8.27-22.93,9.25-25.25.62-34.19.62-34.19c3.1,7.79,6.44,16.22,9.84,24.83.85,2.14,1.71,4.31,2.58,6.46.28.72.57,1.44.86,2.17.79,2,1.57,4,2.37,5.95,1.08,2.69,2.16,5.38,3.24,8.05l1.62,4c.53,1.31,1.07,2.62,1.6,3.92s1.06,2.61,1.59,3.88c2.11,5.14,4.19,10.09,6.19,14.76.5,1.17,1,2.32,1.49,3.44,3.78,8.72,7.27,16.25,10.2,21.77.48.9.94,1.75,1.39,2.54.31.54.61,1.06.9,1.54.18.31.35.59.53.87.52.83,1,1.57,1.48,2.2,0,0-18.37,22.6-21.08,29s-9.31,47.09-11.44,51.76-16.23,23.38-15.65,24.9,26.65-7.6,29.59-16.38S381,313,383.9,308.44C386.13,305,397,291,402.72,283.84,426.51,326.41,453.29,385.23,454.33,386.74Z" style="fill: rgb(0, 0, 0); transform-origin: 348.83px 272.385px;" class="animable"></path></g><g id="elowuqkuquvg9"><path d="M256.43,279c-.81,1-15.73-5.69-16.62-6.14s-5.75-20.78-6.69-20.42-13.28-5.6-14.94-8.21-6-22.28-6-22.28h0s1.59-.7,4.06-1.82c9.23-3.13,21.22-6.89,27-11.76.32,4.23,1.81,24.94,1.53,28.19-.32,3.62-2.76,12-2,14.67S257.24,278,256.43,279Z" style="fill: rgb(0, 0, 0); transform-origin: 234.322px 243.736px;" class="animable"></path></g></g></g><g id="el260fozae3u1"><path d="M313.86,415.3s-58.45-10.45-68.39-14.14c-6.32-2.34-44.66-45.19-64.62-67.37-1.55-1.72-9.24-.2-10.18-.86-8-5.69-22.66-30.57-27.6-30.57-5.38,0-22.15,7.14-26.44,12.49-2.93,3.63-26.76,61.48-33.75,87.93-3.79,14.37-11.3,14.31-15.86,20.15s-19.33,46.49-19.33,46.49Z" style="fill: rgb(0, 0, 0); transform-origin: 180.775px 385.89px;" class="animable"></path></g><g id="elv6bi7d1r94"><g style="opacity: 0.6; transform-origin: 180.775px 385.89px;" class="animable"><g id="eliqv24uaod4h"><path d="M313.86,415.3s-58.45-10.45-68.39-14.14c-6.32-2.34-44.66-45.19-64.62-67.37-1.55-1.72-9.24-.2-10.18-.86-8-5.69-22.66-30.57-27.6-30.57-5.38,0-22.15,7.14-26.44,12.49-2.93,3.63-26.76,61.48-33.75,87.93-3.79,14.37-11.3,14.31-15.86,20.15s-19.33,46.49-19.33,46.49Z" class="animable" style="transform-origin: 180.775px 385.89px;"></path></g></g></g><g id="elqj2suc77ek"><g style="opacity: 0.2; transform-origin: 218.948px 366.003px;" class="animable"><g id="elrw9t68rkpf"><path d="M313.86,415.3l-70.52,14.34c-5.3,0-35.51-.23-36.42,0s-11.14-5.74-13.25-8-47.27-29.82-48.77-31.48-4-16.29-4.82-17.28-15.13-10.82-16-12,11.47-54,12.85-57.22a22.46,22.46,0,0,1,6.1-1.3c4.94,0,19.56,24.88,27.6,30.57.94.66,8.63-.86,10.18.86,20,22.18,58.3,65,64.62,67.37C255.41,404.85,313.86,415.3,313.86,415.3Z" style="fill: rgb(0, 0, 0); transform-origin: 218.948px 366.003px;" class="animable"></path></g></g></g><g id="ell9ic5hoxdv"><path d="M120.67,383.68c-.29,1.27-10.91.29-11.67,0s-6-8-6.68-8.27-2.29-6.35-1.89-6.64a22.58,22.58,0,0,1,3.16-1.63c.39-.07,2.48,3.73,2.85,3.73s7.58,0,8.27.58S120.9,382.72,120.67,383.68Z" style="fill: rgb(0, 0, 0); opacity: 0.2; transform-origin: 110.522px 375.727px;" class="animable"></path></g></g><g id="freepik--Floor--inject-44" class="animable" style="transform-origin: 250px 428.295px;"><g id="elzs8jl8iruw"><path d="M37,471.59C173.35,443.24,326.4,412.12,463,385,326.65,413.33,173.59,444.44,37,471.59Z" style="fill: rgb(38, 50, 56); transform-origin: 250px 428.295px;" class="animable"></path></g></g><g id="freepik--Trees--inject-44" class="animable" style="transform-origin: 248.96px 394.33px;"><g id="elrlj37fofy6g"><path d="M77.44,463.37l-16,3.25-.46.09-.06,0-17,3.45,1.34-5.9A26.72,26.72,0,0,0,49.52,462l-3.91,1,.93-4.13a28.15,28.15,0,0,0,12.14-4.42l-11.8,2.93.65-2.88a28.41,28.41,0,0,0,8.09-3.66l-7.69,1.92,3.76-16.59a26.55,26.55,0,0,0,4.22-2.29l-3.92,1L56.25,416l.06-.24,1.11-4.91a24.38,24.38,0,0,0,3.65-2l-3.38.84L61.48,393l6.71,29.58-5.83-2.27a21.45,21.45,0,0,0,6.25,4.13l.17.74.5,2.24-1-.31-3.17-1a20.61,20.61,0,0,0,3,2.07c.51.29,1,.56,1.54.8l0,.19.28,1.21,3.11,13.73.17.77,1.46,6.45-2.57-.48-.51-.09-7.44-1.39-.45-.08.41.26a20.86,20.86,0,0,0,5.21,2.29L70,452a25.61,25.61,0,0,0,5,.8l.57,2.51.06.26Z" style="fill: rgb(69, 90, 100); transform-origin: 60.68px 431.58px;" class="animable"></path></g><g id="elyk4jqji58zh"><path d="M72.83,450.42l-.7.39c-.7.4-1.42.79-2.13,1.17-2.28,1.22-4.6,2.37-7,3.43l-1.38.61c-.05,2.39-.1,5-.15,7.62,0,1,0,2-.05,3l-.46.09a2.16,2.16,0,0,0,0-.36c0-4.72,0-9.7.06-14.18a109.88,109.88,0,0,1-10.92-4.44c-.18-.09,0-.4.13-.32,2,.74,9.22,3.7,10.79,4.56v-1l-5.26-3.07a63.16,63.16,0,0,1-5.67-3.37c-.08-.06,0-.24.08-.19a47.58,47.58,0,0,1,5.55,3.06c1.78,1,3.54,2.13,5.3,3.21l0-7.57a61.22,61.22,0,0,1-8.27-4.21c-.09,0,0-.22.08-.17a60.54,60.54,0,0,1,8.2,4c0-1.31,0-11.43.28-24.23-1.7-.86-3.44-1.62-5.14-2.47l-.07,0c-.11-.06,0-.26.09-.21h0c1.73.68,3.39,1.49,5.1,2.23.09-3.49.22-7,.44-10.46a.09.09,0,0,1,.17,0c.25,6.48.23,19,.15,25.5,1.78-1.43,3.68-2.69,5.49-4.07.07-.05.14.07.07.12-1.9,1.45-3.67,3-5.57,4.48,0,.37,0,.74,0,1.1,1.71-.78,3.44-1.51,5.17-2.25l.68-.29c.15-.07.29.15.13.23l-.87.42c-1.7.81-3.39,1.63-5.11,2.41,0,3.21-.34,14.79-.46,20.4l1.47-.74c2.06-1,4.13-2.05,6.2-3.05.76-.37,1.51-.73,2.27-1.08l1.08-.52C72.84,450.14,73,450.34,72.83,450.42Z" style="fill: rgb(55, 71, 79); transform-origin: 61.4624px 437.105px;" class="animable"></path></g><g id="elgyqc6ifmp0o"><path d="M347,408.56l-9.73,2-.72.15-4.81,1-.54.11-2.68.54-.65.13-2.06.42,2.5-11a22.81,22.81,0,0,0,3.7-2l-3.44.85,3.75-16.5,0-.2,1-4.3a22.81,22.81,0,0,0,3.22-1.79l-3,.75L336.89,364,342.76,390l-5.1-2a18.92,18.92,0,0,0,5.48,3.63l.59,2.61L340.09,393a17.73,17.73,0,0,0,4,2.51Z" style="fill: rgb(69, 90, 100); transform-origin: 336.405px 388.455px;" class="animable"></path></g><g id="elpve73aep8s"><path d="M327.07,411.75c.33.13.84.32,1.44.57l-.65.13L327,412C326.79,412,326.9,411.68,327.07,411.75Z" style="fill: rgb(55, 71, 79); transform-origin: 327.697px 412.095px;" class="animable"></path></g><g id="elk3c4rul1t3"><path d="M327,409.07a39.3,39.3,0,0,1,4.71,2.6l-.54.11a41.05,41.05,0,0,1-4.24-2.55C326.87,409.18,326.91,409,327,409.07Z" style="fill: rgb(55, 71, 79); transform-origin: 329.306px 410.417px;" class="animable"></path></g><g id="el5x5nzr100xk"><path d="M342.71,398.55c-1.74.84-3.48,1.69-5.25,2.48,0,1.59-.11,5.51-.2,9.51l-.72.15c0-.92,0-1.84,0-2.77a52.49,52.49,0,0,1-7.25-3.68c-.08-.05,0-.19.06-.16a52.73,52.73,0,0,1,7.19,3.55c0-1.15,0-10,.25-21.25-1.49-.75-3-1.41-4.5-2.17l-.07,0a.1.1,0,0,1,.08-.18h0c1.52.6,3,1.3,4.47,2,.08-3.06.2-6.12.39-9.17a.08.08,0,1,1,.15,0c.22,5.67.2,16.66.13,22.35,1.56-1.25,3.23-2.35,4.82-3.56.06,0,.12.05.06.1-1.67,1.26-3.22,2.67-4.89,3.93,0,.32,0,.64,0,1,1.69-.77,3.41-1.49,5.12-2.23C342.73,398.29,342.85,398.49,342.71,398.55Z" style="fill: rgb(55, 71, 79); transform-origin: 336.014px 393.721px;" class="animable"></path></g><g id="eljw048gamlcq"><path d="M454,386.8l-15.46,3.14-.48.1-16.55,3.37.82-3.64a26,26,0,0,0,4.22-2.28l-3.92,1,.94-4.14a28,28,0,0,0,12.14-4.42l-11.8,2.94.65-2.88a28.41,28.41,0,0,0,8.09-3.66L425,378.21l3.76-16.58a26.55,26.55,0,0,0,4.22-2.29l-3.93,1,4.27-18.81.05-.24,1.12-4.91a23.92,23.92,0,0,0,3.65-2l-3.38.84,3.79-16.72,6.7,29.59-5.82-2.27a21.52,21.52,0,0,0,6.25,4.13l.67,3-4.15-1.32a20.42,20.42,0,0,0,4.51,2.88l5.06,22.35-2.59-.48-.49-.09-7.9-1.47a20.88,20.88,0,0,0,5.63,2.55l.64.18a27.41,27.41,0,0,0,5,.8Z" style="fill: rgb(69, 90, 100); transform-origin: 437.755px 355.955px;" class="animable"></path></g><g id="el4wvvnv5qd22"><path d="M449.88,375.91l-.72.4c-.7.4-1.41.79-2.12,1.17q-4.08,2.19-8.32,4c-.06,2.63-.11,5.54-.16,8.42l-.48.1c0-4.17,0-8.46,0-12.37a110.69,110.69,0,0,1-10.91-4.44c-.18-.09-.06-.4.13-.33,2,.75,9.22,3.71,10.79,4.57v-1l-5.26-3.07a63.16,63.16,0,0,1-5.67-3.37c-.08-.06,0-.24.08-.19a46.65,46.65,0,0,1,5.54,3.06c1.79,1,3.55,2.12,5.31,3.21l0-7.58a58.91,58.91,0,0,1-8.27-4.2c-.09,0,0-.22.08-.18a60.6,60.6,0,0,1,8.2,4c0-1.32-.05-11.43.28-24.24-1.7-.86-3.44-1.61-5.14-2.46l-.07,0c-.11-.06,0-.26.09-.21h0c1.73.68,3.4,1.48,5.1,2.23.1-3.49.23-7,.44-10.46,0-.11.18-.12.18,0,.24,6.48.22,19,.14,25.49,1.79-1.42,3.69-2.68,5.5-4.06.07-.05.14.07.07.12-1.9,1.44-3.67,3-5.57,4.48,0,.37,0,.73,0,1.1,1.94-.88,3.9-1.71,5.85-2.54.15-.07.29.15.13.22-2,1-4,1.93-6,2.83-.05,3.21-.34,14.8-.46,20.4,2.54-1.28,5.1-2.55,7.67-3.78.75-.37,1.51-.73,2.27-1.08l1.08-.52C449.89,375.63,450,375.83,449.88,375.91Z" style="fill: rgb(55, 71, 79); transform-origin: 438.505px 361.442px;" class="animable"></path></g><g id="elkl7zwwdoju"><path d="M255.36,427.2l-7.21,1.46-8.81,1.79-.55.11L221,434.18l.62-3.3c8-.52,14.22-5.94,14.22-5.94l-13.91,4.24,5.14-27.66a27.34,27.34,0,0,0,5.78-3.64l-5.42,1.66.84-4.51a28.49,28.49,0,0,0,8.21-4.65l-7.79,2.37,4.86-26.2a23.26,23.26,0,0,0,2.94-2.09l-2.7.83,5-27.19,6,32.39,0,.27,1.17,6.29-6.28-3a23.39,23.39,0,0,0,6.73,5.43h0l4.63,25,0,.13.55,2.93,0,.26.5,2.74.59,3.17.08.45.38,2-2.14-.83-8.41-3.24a22.55,22.55,0,0,0,8,5.28,24.79,24.79,0,0,0,2.52.84c.17.06.33.1.49.14l.17.93.53,2.82-4.55-1-1.13-.26c.33.27.67.52,1,.76a20.21,20.21,0,0,0,2.18,1.33,19.44,19.44,0,0,0,2.24,1c.21.09.42.16.63.24Z" style="fill: rgb(55, 71, 79); transform-origin: 238.18px 386.14px;" class="animable"></path></g><g id="eluw0dxw484oh"><path d="M251.76,407.79a.19.19,0,0,1-.08.07,120.41,120.41,0,0,1-12.38,5c0,4.28,0,11.25,0,17.58l-.55.11c-.06-5-.12-10.18-.19-13.2a137.27,137.27,0,0,1-13-6.53.15.15,0,0,1,.15-.25q6.47,3,12.84,6.27c-.14-6.53-.28-13.06-.37-19.59-.05-3.73-.11-7.47-.16-11.21-2.35-1.05-4.66-2.19-7-3.3-.18-.08,0-.34.16-.26,2.27,1,4.56,1.93,6.81,3,0-.43,0-.86,0-1.28-2.21-1.68-4.28-3.54-6.49-5.22-.08-.06,0-.2.08-.14,2.11,1.61,4.33,3.07,6.4,4.73-.09-7.55-.12-15.1.17-22.64a.11.11,0,1,1,.21,0c.24,4.05.4,8.11.51,12.18,2-.87,3.92-1.8,5.93-2.59l0,0c.14-.06.23.17.1.24l-.1.05c-2,1-4,1.88-6,2.87.2,7.87.22,15.76.3,23.63,0,1.53,0,3.06,0,4.59a70.34,70.34,0,0,1,9.54-4.7c.12,0,.2.14.09.2a70.27,70.27,0,0,1-9.63,4.9q0,4.41,0,8.82c2-1.26,4.1-2.52,6.18-3.74a40,40,0,0,1,5.55-2.88.09.09,0,0,1,.11,0,.12.12,0,0,1,0,.13.08.08,0,0,1,0,.07c-2,1.51-3.5,2-5.69,3.24s-4.09,2.37-6.13,3.57v1.16c1.83-1,9.94-4.29,12.22-5.16a.17.17,0,0,1,.19,0A.23.23,0,0,1,251.76,407.79Z" style="fill: rgb(69, 90, 100); transform-origin: 238.64px 395.669px;" class="animable"></path></g><g id="eldvjsn1nvi9p"><path d="M418,394.13l-8.2-2.05a21.62,21.62,0,0,0,5.44,2.6l-7.29,1.49-.42.08-12.37,2.52,1.8-7.95a20.84,20.84,0,0,0,4-.64l.49-.13a16.71,16.71,0,0,0,4.44-2l-6.22,1.15-.37.07-2,.38,4-17.57a15.79,15.79,0,0,0,3.55-2.25l-3.26,1,.52-2.34a17,17,0,0,0,4.91-3.25l-4.57,1.79,5.27-23.26,3,13.14-2.67-.66a20,20,0,0,0,2.89,1.6l.88,3.86,0,.18,3.35,14.79-3.1-.78a20.91,20.91,0,0,0,3.33,1.81l3,13-6.05-1.5a22.21,22.21,0,0,0,6.36,2.87l.4,1.8.11.47Z" style="fill: rgb(55, 71, 79); transform-origin: 407.19px 371.27px;" class="animable"></path></g><g id="el2xak8uz2sup"><path d="M416.51,386.84a84.63,84.63,0,0,1-8.58,3.49c0,1.87,0,3.84,0,5.84l-.42.08c0-1,0-2-.06-2.89-2.22-1-4.41-2-6.55-3.18-.56-.29-1.11-.6-1.66-.92l-.56-.31a.09.09,0,1,1,.09-.16l.84.4c.6.28,1.19.56,1.78.86,2,1,4,2,6.05,3-.09-4.41-.32-13.51-.36-16-1.58-.7-3.14-1.47-4.71-2.22-.12-.06,0-.23.11-.18,1.53.66,3.08,1.31,4.59,2,0-.29,0-.58,0-.86-1.49-1.13-2.89-2.39-4.38-3.53-.05,0,0-.13.06-.09,1.42,1.09,2.92,2.08,4.32,3.19-.07-5.09-.08-14.94.11-20a.07.07,0,0,1,.14,0c.17,2.74.27,5.48.34,8.22,1.34-.59,2.66-1.22,4-1.75h0c.1,0,.16.12.07.16l0,0c-1.33.67-2.71,1.27-4,1.94.25,10.07.21,18,.22,19a47.53,47.53,0,0,1,6.44-3.18c.09,0,.13.1.06.14a47.21,47.21,0,0,1-6.5,3.3l0,6q2.07-1.29,4.17-2.53a36.87,36.87,0,0,1,4.35-2.4c.1,0,.13.1.07.15a51.22,51.22,0,0,1-4.46,2.64l-4.13,2.42v.78c1.23-.68,6.94-3,8.48-3.59C416.55,386.53,416.65,386.77,416.51,386.84Z" style="fill: rgb(69, 90, 100); transform-origin: 407.606px 375.77px;" class="animable"></path></g><g id="eloxql06zcsgo"><path d="M145.35,445.78a21.67,21.67,0,0,0,5.61,2.64l-4.82,1-3.21-.8a17.54,17.54,0,0,0,1.82,1.09l-3.67.74-.47.1-11.79,2.39,1.27-5.58a19.29,19.29,0,0,0,3.94-.64,4.77,4.77,0,0,0,.51-.13,16.71,16.71,0,0,0,4.44-2l-6.22,1.15-.38.07-2,.38,4-17.56a16.44,16.44,0,0,0,3.55-2.26l-3.27,1,.53-2.34a16.76,16.76,0,0,0,4.91-3.25l-4.58,1.79,5.27-23.26,3,13.15-2.67-.67a20.16,20.16,0,0,0,2.88,1.6l.88,3.86,0,.18,3.36,14.79-3.1-.78a20,20,0,0,0,3.33,1.81l3,13Z" style="fill: rgb(55, 71, 79); transform-origin: 140.145px 426.625px;" class="animable"></path></g><g id="eli28oi76oce8"><path d="M149.65,443.37a85.52,85.52,0,0,1-8.58,3.48c0,1.16,0,2.36,0,3.58l-.47.1c0-.22,0-.44,0-.65-2.23-1-4.43-2-6.57-3.18-.55-.3-1.11-.6-1.65-.92-.19-.09-.37-.2-.55-.3a.1.1,0,0,1,.09-.17l.84.4c.6.28,1.19.56,1.78.86,2,1,4,2,6.05,3-.1-4.41-.33-13.51-.36-16-1.59-.71-3.14-1.48-4.71-2.23-.12-.06,0-.23.11-.18,1.53.66,3.07,1.31,4.59,2,0-.29,0-.57,0-.86-1.49-1.13-2.89-2.39-4.38-3.52-.05,0,0-.14.06-.1,1.42,1.09,2.92,2.08,4.32,3.2-.07-5.1-.08-14.95.11-20a.07.07,0,0,1,.14,0q.24,4.11.34,8.22c1.34-.59,2.65-1.22,4-1.75h0c.1,0,.16.12.07.16l-.06,0c-1.33.68-2.7,1.27-4,1.94.26,10.07.22,18,.23,19.05a47.53,47.53,0,0,1,6.44-3.18c.08,0,.13.1.06.14a48.42,48.42,0,0,1-6.5,3.31c0,2,0,4,0,5.95,1.39-.85,2.77-1.7,4.18-2.52a35.55,35.55,0,0,1,4.35-2.41c.09,0,.13.1.06.15-1.38,1-3,1.78-4.45,2.65s-2.76,1.6-4.13,2.41v.78c1.23-.68,6.93-3,8.47-3.59C149.69,443.05,149.79,443.3,149.65,443.37Z" style="fill: rgb(69, 90, 100); transform-origin: 140.758px 431.17px;" class="animable"></path></g><g id="elr8ych5om5q8"><path d="M96.15,459.57l-16.41,3.34-.55.11-1.75.35-16,3.25-.46.09-.06,0,.06-.38.51-2.71L62,461c6.59-.43,12-4.19,13.67-5.49.36-.28.55-.45.55-.45l-.61.19-13.29,4,.73-3.93.1-.56,1-5.34,0-.18,3.07-16.55.06-.36.14-.74c.93-.44,1.77-.9,2.51-1.34a25.26,25.26,0,0,0,3.28-2.3l-3.56,1.09-1.87.57.29-1.56.2-1.07.35-1.88.13-.05a28.54,28.54,0,0,0,8.09-4.6l-7.79,2.37,4.86-26.2a24.25,24.25,0,0,0,2.94-2.09l-2.71.83,5-27.19,6,32.39,0,.27,1.17,6.29-6.28-3a23.39,23.39,0,0,0,6.73,5.43h0l4.63,25,0,.15.53,2.9.06.27,1.55,8.39-10.55-4.07a23.14,23.14,0,0,0,11,6.26l.7,3.75L89.12,451a21.11,21.11,0,0,0,6.06,3.37Z" style="fill: rgb(55, 71, 79); transform-origin: 78.535px 417.44px;" class="animable"></path></g><g id="el3zy0vr2lvvj"><path d="M92.14,438a.19.19,0,0,1-.08.07,120.24,120.24,0,0,1-12.37,5c0,4.81,0,13,0,19.88l-.55.11c-.06-5.58-.13-12-.21-15.5-1.93-.85-3.85-1.74-5.74-2.68-2.46-1.21-4.88-2.5-7.25-3.85a.14.14,0,0,1,.14-.25c2.32,1.09,4.64,2.21,6.94,3.33q3,1.46,5.9,2.94c-.14-6.53-.28-13.06-.36-19.59,0-3.73-.12-7.47-.17-11.21-2.35-1-4.66-2.19-7-3.3-.19-.08,0-.34.15-.26,2.28,1,4.56,1.93,6.81,3,0-.43,0-.85,0-1.28-2.22-1.68-4.29-3.54-6.49-5.22-.09-.06,0-.2.08-.14,2.11,1.61,4.32,3.08,6.4,4.73-.1-7.55-.12-15.1.16-22.64a.1.1,0,1,1,.21,0c.25,4.05.4,8.12.51,12.18,2-.87,3.91-1.8,5.93-2.59l.06,0c.14-.06.23.17.1.24l-.11.05c-2,1-4,1.88-6,2.87.2,7.87.21,15.76.3,23.63l0,4.59a69.88,69.88,0,0,1,9.55-4.7c.12-.05.19.14.08.2a69.14,69.14,0,0,1-9.63,4.9q0,4.41,0,8.82c2-1.26,4.1-2.52,6.18-3.74a39.53,39.53,0,0,1,5.56-2.88.08.08,0,0,1,.1,0,.14.14,0,0,1,0,.15l0,.05c-2.05,1.51-3.5,2-5.7,3.24-2,1.19-4.09,2.37-6.13,3.57,0,.39,0,.77,0,1.16,1.82-1,9.93-4.29,12.22-5.16a.15.15,0,0,1,.17,0A.21.21,0,0,1,92.14,438Z" style="fill: rgb(69, 90, 100); transform-origin: 79.0102px 427.048px;" class="animable"></path></g></g><g id="freepik--Character--inject-44" class="animable" style="transform-origin: 249.216px 236.587px;"><g id="elp867sdpq21"><path d="M250.79,318.47l-41.28-16.34s33-80.07,31.49-84.67c-1.53-4.83-59.16-21.44-71.76-40.47-12.32-18.59,4.86-45.34,4.86-45.34L218.44,144s-1.93,4.91-1.45,6.24c.56,1.56,67.4,27.24,72.3,47.3C296.22,225.86,250.79,318.47,250.79,318.47Z" style="fill: rgb(247, 169, 160); transform-origin: 227.4px 225.06px;" class="animable"></path></g><g id="elvekg2k37ff"><path d="M279,184.18l-45.82,28.58c-16.52-7.44-54-20.86-63.89-35.77-12.32-18.6,4.86-45.33,4.86-45.33L218.43,144s-1.92,4.9-1.44,6.25S258.89,167.59,279,184.18Z" style="fill: rgb(38, 50, 56); transform-origin: 221.921px 172.21px;" class="animable"></path></g><g id="elaj7m4uexuhv"><path d="M242.13,207.15l-2.07,1.29c-20.86-8.28-60.53-25.19-66.55-36.46-3.44-6.45-2.74-16.19,2.08-29,1.37-3.63,2.89-7,4.25-9.77l1.91.53c-4.77,9.67-11.88,27.25-6.54,37.29C181,181.93,221.91,199.16,242.13,207.15Z" style="fill: rgb(69, 90, 100); transform-origin: 206.747px 170.825px;" class="animable"></path></g><g id="elblm0l9mrv3b"><path d="M212.51,142.31l-.46,61.45c-16.89-7.32-36.14-16.71-42.81-26.77-12.32-18.6,4.86-45.33,4.86-45.33Z" style="fill: rgb(2, 1, 0); opacity: 0.1; transform-origin: 188.651px 167.71px;" class="animable"></path></g><g id="elnfaa03nm6cd"><path d="M261.52,357c-2.62-.18-56.64-25.23-58.49-27.87-.71-1-.51-8.57,4-20.33,0-.13.09-.25.14-.37.92-2.43,16.61-41.78,16.61-41.78L267.18,282l-17.32,43.69-.31.72s20.52,21.78,22.24,24.89S264.14,357.24,261.52,357Z" style="fill: rgb(235, 235, 235); transform-origin: 237.36px 311.832px;" class="animable"></path></g><g id="elck7bxnb24ma"><path d="M207.16,308.47s-5.49,8.15-6.26,12.82.72,11.52,2,12.08l11.66,5.27c1.11.5,3.74-.15,5.13.48s2.71,3.06,5.49,4.32,24.74,12.21,32.63,13.77c7.19,1.41,17.46-2.37,18.37-6s-14.4-13.82-19.13-18.73c-7.1-7.39-6.89-8.46-6.89-8.46s-24.57-3.09-31.79-6c-1.59-.65-2.42-5.25-3.75-6.35C212.84,310.18,207.16,308.47,207.16,308.47Z" style="fill: rgb(69, 90, 100); transform-origin: 238.454px 332.991px;" class="animable"></path></g><g id="elgskq8d6bgdw"><path d="M251.76,325c1.09.86,3.34,3.18,2.8,3.6-.73.58-9.05,4.38-9.56,4-1.16-.94-4-3.22-3.63-4S251.08,324.51,251.76,325Z" style="fill: rgb(38, 50, 56); transform-origin: 247.99px 328.789px;" class="animable"></path></g><g id="el2r8xise0897"><path d="M258.37,331.12c1.09.86,3.34,3.18,2.8,3.6s-8.4,4.9-9.56,4-3.66-3.08-3.32-3.84S257.7,330.59,258.37,331.12Z" style="fill: rgb(38, 50, 56); transform-origin: 254.755px 334.953px;" class="animable"></path></g><g id="elw24kxc82un"><path d="M265,337.2c1.09.86,3.34,3.18,2.8,3.6s-7.94,4.73-9.1,3.78-3.49-2.62-3.15-3.38S264.31,336.67,265,337.2Z" style="fill: rgb(38, 50, 56); transform-origin: 261.699px 340.933px;" class="animable"></path></g><g id="elwqv5stmjdq8"><path d="M242.46,106.81c1.8,21.2,4.46,44.44,8.91,48.35,10.66,9.35,29.42,17,41.9,21.4,4.07,1.43,13.87-26.09,9.7-28.05-3.1-1.46-31.45-12-32.7-13.54-1-1.24-7.26-21.92-14.61-37.12C248.15,82.35,241.34,93.64,242.46,106.81Z" style="fill: rgb(247, 169, 160); transform-origin: 273.161px 133.482px;" class="animable"></path></g><g id="el74h8jpc8upd"><path d="M310.63,180c-1.9-.07-2,.93.62,3.12s14.62,8.7,12,12.72-19.5-5.42-23.5-9.4-9.09-11.84-9.09-11.84C294.31,175.79,303.43,177.8,310.63,180Z" style="fill: rgb(247, 169, 160); transform-origin: 307.141px 185.708px;" class="animable"></path></g><g id="elq244590rbba"><path d="M301.8,148c16.63,4.8,23.45,8.51,31.22,17.92a6,6,0,0,1,1.48,3.67c3.56,4.15,2.66,7.08,2.66,7.08,2.13,4.88.81,7.75.81,7.75s4.12,4.92,1.56,7.9c-2.86,3.36-8.09-4.21-13.51-6.61-12.43-5.51-31.62-9.86-35.36-11.09Z" style="fill: rgb(247, 169, 160); transform-origin: 315.514px 170.583px;" class="animable"></path></g><g id="el0qwbmn0de67q"><path d="M317.05,170.78a86.25,86.25,0,0,1,10.61,5.44,87.71,87.71,0,0,1,10.16,8.19.11.11,0,0,0,.15-.15,46.26,46.26,0,0,0-20.84-13.64C316.94,170.56,316.87,170.7,317.05,170.78Z" style="fill: rgb(38, 50, 56); transform-origin: 327.465px 177.515px;" class="animable"></path></g><g id="elofydvantlaq"><path d="M319.29,162.8c3.43,1.84,9.45,5.12,17.78,13.95,0,0,.08,0,.06-.05a41.41,41.41,0,0,0-17.76-14.06C319.15,162.54,319.06,162.68,319.29,162.8Z" style="fill: rgb(38, 50, 56); transform-origin: 328.144px 169.678px;" class="animable"></path></g><g id="elmneq43rlrx"><path d="M320.57,158.53c5.72,3.36,8.9,6.2,13.89,11.05,0,0,.08,0,.06-.05-5.1-6.1-7.64-7.74-13.87-11.21C320.44,158.2,320.34,158.4,320.57,158.53Z" style="fill: rgb(38, 50, 56); transform-origin: 327.481px 163.932px;" class="animable"></path></g><g id="el3l2la9kl8lv"><path d="M245,131.48l22.73-3s-6.74-24.75-14.35-36.1c-7.31-10.88-11.92-3-12,6C241.41,106.41,245,131.48,245,131.48Z" style="fill: rgb(0, 0, 0); transform-origin: 254.555px 109.287px;" class="animable"></path></g><g id="elb7ioogiyzjt"><path d="M255.92,96.61l-6,34.23-4.84.64s-3.63-25.07-3.59-33.12c.05-9,4.66-16.88,12-6A44.41,44.41,0,0,1,255.92,96.61Z" style="fill: rgb(2, 1, 0); opacity: 0.1; transform-origin: 248.705px 109.277px;" class="animable"></path></g><polygon points="185.25 350.73 179.66 353.59 157.8 303.58 163.4 300.71 185.25 350.73" style="fill: rgb(199, 199, 199); transform-origin: 171.525px 327.15px;" id="el0gxuh9xm9yyo" class="animable"></polygon><g id="eld0druzttgp9"><rect x="209.45" y="391.37" width="27.79" height="8.06" style="fill: rgb(38, 50, 56); transform-origin: 223.345px 395.4px; transform: rotate(-176.8deg);" class="animable"></rect></g><g id="elscgqcy9x3r8"><path d="M85,338.59a51.9,51.9,0,0,1,44.83-24.37A57.58,57.58,0,0,0,85,338.59Z" style="fill: rgb(38, 50, 56); transform-origin: 107.415px 326.402px;" class="animable"></path></g><g id="elo6c990rhrv"><path d="M100.36,413.9a53.07,53.07,0,0,1-24.3-50.56l.65-4.16,1-4.1-.79,4.13-.47,4.16a56.16,56.16,0,0,0,23.94,50.53Z" style="fill: rgb(38, 50, 56); transform-origin: 88.068px 384.49px;" class="animable"></path></g><g id="el0uptku21lhe"><path d="M182.32,352.67c11.16,34.28-14.91,70.21-50.91,70.39a55.34,55.34,0,0,1-14.22-1.74C137,426,159,418.9,171.85,403a54.88,54.88,0,0,0,10.47-50.37Z" style="fill: rgb(38, 50, 56); transform-origin: 151.06px 387.846px;" class="animable"></path></g><g id="elyplhfxabn3q"><path d="M160.33,323.24a40.1,40.1,0,0,1,15,14.86,86,86,0,0,0-15-14.86Z" style="fill: rgb(38, 50, 56); transform-origin: 167.83px 330.67px;" class="animable"></path></g><g id="el6vtut4vcyh"><path d="M96.43,398.25c-27.29-31.26-1.93-79.42,39.24-74.7a44.9,44.9,0,0,1,39.74,44.62,44.93,44.93,0,0,0-60.95-41.32c-28.95,10.54-38.33,48.27-18,71.4Z" style="fill: rgb(38, 50, 56); transform-origin: 130.241px 360.739px;" class="animable"></path></g><g id="elgpzj2v23l34"><path d="M343.07,190.77l-11.9,2.43-1.35-6.63,11.9-2.43a7.28,7.28,0,0,0,3.53-1.83l12.65-11.93,4.64,4.92-12.65,11.93A13.94,13.94,0,0,1,343.07,190.77Z" style="fill: rgb(38, 50, 56); transform-origin: 346.18px 181.79px;" class="animable"></path></g><g id="elwhzkqb4cd8"><rect x="150.6" y="208.41" width="7.73" height="56.66" style="fill: rgb(38, 50, 56); transform-origin: 154.465px 236.74px; transform: rotate(-32.7352deg);" class="animable"></rect></g><g id="elwq4glb4pf7"><path d="M146.85,449.55a82.64,82.64,0,1,1,64.48-97.48A82.72,82.72,0,0,1,146.85,449.55Zm-29.15-143a63.32,63.32,0,1,0,74.69,49.4A63.39,63.39,0,0,0,117.7,306.53Z" style="fill: rgb(38, 50, 56); transform-origin: 130.347px 368.573px;" class="animable"></path></g><g id="elvw07np657vh"><path d="M384.59,401.11a82.64,82.64,0,1,1,64.48-97.48A82.74,82.74,0,0,1,384.59,401.11Zm-29.14-143a63.31,63.31,0,1,0,74.68,49.4A63.38,63.38,0,0,0,355.45,258.09Z" style="fill: rgb(38, 50, 56); transform-origin: 368.086px 320.133px;" class="animable"></path></g><g id="el0cl9lz9z61me"><path d="M131,369.74l-4.52-1.7,39.81-105.85.44-.39c1.12-1,27.88-24.86,60.36-35.11,32.15-10.13,72.86-17.05,73.27-17.12l.8,4.76c-.4.07-40.79,6.94-72.62,17C199.3,240.53,174,261.89,170.43,265Z" style="fill: rgb(0, 0, 0); transform-origin: 213.82px 289.655px;" class="animable"></path></g><polygon points="203.25 325.75 94.53 334.46 93.76 324.83 197.38 316.52 269.45 189.59 277.85 194.36 203.25 325.75" style="fill: rgb(0, 0, 0); transform-origin: 185.805px 262.025px;" id="el6v8mykrz7j7" class="animable"></polygon><g id="el1d9hutwqp97"><rect x="196.55" y="243.46" width="9.66" height="131.41" style="fill: rgb(0, 0, 0); transform-origin: 201.38px 309.165px; transform: rotate(-33.19deg);" class="animable"></rect></g><g id="el8iz3490hvv3"><rect x="299.71" y="204.35" width="9.66" height="41.38" style="fill: rgb(0, 0, 0); transform-origin: 304.54px 225.04px; transform: rotate(-31.68deg);" class="animable"></rect></g><g id="eldnj85kut1zg"><rect x="336.97" y="226.22" width="4.83" height="102.69" style="fill: rgb(0, 0, 0); transform-origin: 339.385px 277.565px; transform: rotate(-34.0075deg);" class="animable"></rect></g><g id="elb2tikxp7nph"><path d="M142,366.2a11.89,11.89,0,1,1-14-9.28A11.9,11.9,0,0,1,142,366.2Z" style="fill: rgb(55, 71, 79); transform-origin: 130.35px 368.576px;" class="animable"></path></g><g id="elzorjxx2f6gs"><circle cx="368.09" cy="320.13" r="11.89" style="fill: rgb(55, 71, 79); transform-origin: 368.09px 320.13px; transform: rotate(-6.08deg);" class="animable"></circle></g><g id="elemc4j043ov8"><path d="M327.37,234.92l-3.05-6,17.41-8.8a8.86,8.86,0,0,0,4.44-5.22l1.87-6a8.87,8.87,0,0,0-3.55-10l-6.7-4.43a8.74,8.74,0,0,0-6.62-1.28l-31.49,6.41-3.72,5.5,2.39,3.46-5.57,3.85-5-7.27,7.87-11.62,34.19-7a15.48,15.48,0,0,1,11.71,2.27l6.69,4.43a15.66,15.66,0,0,1,6.27,17.67l-1.87,5.95a15.65,15.65,0,0,1-7.84,9.23Z" style="fill: rgb(0, 0, 0); transform-origin: 321.497px 210.559px;" class="animable"></path></g><polyline points="85.91 173.87 110.27 182.37 119.38 164.34" style="fill: none; stroke: rgb(38, 50, 56); stroke-miterlimit: 10; transform-origin: 102.645px 173.355px;" id="elrd3utthm2h9" class="animable"></polyline><g id="eln44fqlyjbdm"><path d="M112.23,217.34c6.7,1.85,20.53.49,32.49-4.57,10.87-4.61,27.19-5.78,26.36-9.88-.33-1.6-9.66-1.93-25.25,1.25-15.35,3.13-33.5,2.74-39.75,6.92C103.39,212.86,108.9,216.43,112.23,217.34Z" style="fill: rgb(69, 90, 100); transform-origin: 138.237px 209.917px;" class="animable"></path></g><g id="elx11dk6abchl"><path d="M406.17,281.35c25.56,24.33,20.92,66.71-9.05,85.21a54.07,54.07,0,0,1-56.27.6,54.72,54.72,0,0,0,37.82,5.89c42.33-9,57.85-60.88,27.5-91.7Z" style="fill: rgb(38, 50, 56); transform-origin: 381.817px 328.055px;" class="animable"></path></g><g id="elgpsypvn7h7"><path d="M331.89,360.67c-22.75-19.4-24.78-54.78-4.75-76.87A54,54,0,0,1,373.26,266a55.3,55.3,0,0,0-28.79,5.62c-34.25,16.91-40.67,63.21-12.58,89Z" style="fill: rgb(38, 50, 56); transform-origin: 343.316px 313.18px;" class="animable"></path></g><g id="el3d2f9yu8t5x"><path d="M359.1,276c31.41-6.89,59.64,20.78,53.75,52.32a45,45,0,0,1-23,31.32A45.7,45.7,0,0,0,412,328.15c5.5-31.11-21.95-57.89-52.9-52.17Z" style="fill: rgb(38, 50, 56); transform-origin: 386.367px 317.289px;" class="animable"></path></g><g id="elco354e10mio"><path d="M377.09,364.28a45.81,45.81,0,0,1-18.07.35,44.55,44.55,0,0,1-9.92-3.2l-2.36-1.11L344.48,359a44.43,44.43,0,0,1-21.36-41.87,47.43,47.43,0,0,0,3.72,20.1c8.22,19.56,29.43,30.75,50.25,27Z" style="fill: rgb(38, 50, 56); transform-origin: 350.024px 341.247px;" class="animable"></path></g><g id="elb4s3muewtpr"><path d="M222.21,128a285.87,285.87,0,0,1-9.15,33.68c-.46,1.34-6.18,4.28-6.7,5.54,0,0,9.93,69.56,12.47,85.21,3,18.27,19,109.84,19,109.84l-45.72-2.56s-5.19-25.6-11.3-50c-2.8-11.19-8.41-48.9-8.92-52.08-2.47-15.46-19.81-90.64-20.3-92.86-5.23-23.75,15.81-40.05,15.81-40.05Z" style="fill: rgb(247, 169, 160); transform-origin: 194.292px 243.495px;" class="animable"></path></g><g id="elkr7yqmntknj"><path d="M222.21,128a286,286,0,0,1-9.15,33.67c-.46,1.33-6.18,4.29-6.7,5.55,0,0,5.48,38.33,9.34,64.48l-48.89.6c-6-27.65-14.82-66-15.17-67.54-5.23-23.75,14.93-42,14.93-42Z" style="fill: rgb(38, 50, 56); transform-origin: 186.492px 177.53px;" class="animable"></path></g><g id="elg6ddltwk9gd"><path d="M259.88,391.7c-2.54.68-61.77-5.55-64.36-7.45-1-.7-3.26-7.94-2.81-20.53,0-.13,0-.26,0-.39.08-2.59-9.37-43.38-9.37-43.38l47.18.36,8.16,45.5-.06.78s26.46,14,29.1,16.36S262.42,391,259.88,391.7Z" style="fill: rgb(235, 235, 235); transform-origin: 225.795px 355.851px;" class="animable"></path></g><g id="el4in3vzw479g"><path d="M192.73,363.33s-2.57,9.49-1.79,14.15,4.42,10.67,5.78,10.8l12.74,1.21c1.21.12,3.49-1.35,5-1.2s3.56,2,6.59,2.31,27.36,3.55,35.33,2.47c7.26-1,15.76-7.89,15.43-11.67s-18.1-8.41-24.16-11.53c-9.12-4.69-9.26-5.78-9.26-5.78s-24.25,5-32,4.6c-1.73-.1-4-4.19-5.61-4.79C198.65,363.11,192.73,363.33,192.73,363.33Z" style="fill: rgb(69, 90, 100); transform-origin: 231.306px 378.296px;" class="animable"></path></g><g id="el6ja6tfvbto4"><path d="M240.28,364.58c1.31.46,4.19,1.93,3.82,2.51-.5.77-7.14,7.06-7.76,6.83-1.41-.52-4.81-1.76-4.73-2.59S239.48,364.3,240.28,364.58Z" style="fill: rgb(38, 50, 56); transform-origin: 237.871px 369.248px;" class="animable"></path></g><g id="elvmkkvaa0iw"><path d="M248.51,368.19c1.31.47,4.19,1.93,3.81,2.51s-6.36,7.35-7.76,6.83-4.46-1.72-4.38-2.56S247.7,367.91,248.51,368.19Z" style="fill: rgb(38, 50, 56); transform-origin: 246.266px 372.87px;" class="animable"></path></g><g id="el79owiq0q56"><path d="M256.73,371.81c1.31.46,4.19,1.93,3.82,2.5s-6,7-7.39,6.53-4.16-1.35-4.08-2.19S255.92,371.52,256.73,371.81Z" style="fill: rgb(38, 50, 56); transform-origin: 254.83px 376.332px;" class="animable"></path></g><g id="el5kz8yuudz48"><path d="M158.8,132.21c-.1.21,57.78,16.15,58.72,16,.67-.1,6-6.59,10.45-13.61,3.38-5.29,25.33-23.16,27.22-30.65,2.36-9.31-3.46-17.51-10.81-18.1C204.84,82.69,163.61,122.79,158.8,132.21Z" style="fill: rgb(0, 0, 0); transform-origin: 207.261px 116.942px;" class="animable"></path></g><g id="elx1tmeal8p4"><path d="M250.38,88.28a120.72,120.72,0,0,0-60,21.94c-9.86,7-19.58,14.45-25.83,23.67a37.69,37.69,0,0,0-6.88,22.32c.19,10.44,11.26,56.8,16,76l-2,0c-4.8-19.58-15.71-65.31-15.9-76a39.35,39.35,0,0,1,6.84-22.91c6.39-9.7,16.47-17.47,26.69-24.69a122.36,122.36,0,0,1,58.25-22A11.21,11.21,0,0,1,250.38,88.28Z" style="fill: rgb(69, 90, 100); transform-origin: 203.072px 159.41px;" class="animable"></path></g><g id="elpejc3jvup2d"><path d="M249.57,105.27c-3-1.6-7.57-11-6.21-16.12.1-.35,2.28-1.9,5.4-4.59,1.88-1.64,4-3.51,5.7-5.36.36-.38,8.89,13.84,8.89,13.84a40.58,40.58,0,0,0-7.87,6,6,6,0,0,0-.64.83l-.1.14C253.6,101.69,252.78,107,249.57,105.27Z" style="fill: rgb(247, 169, 160); transform-origin: 253.232px 92.4023px;" class="animable"></path></g><g id="elgf0p560dq3l"><path d="M263.35,93A40.64,40.64,0,0,0,255.57,99,20.85,20.85,0,0,1,251,82.59c1.21-1.1,2.4-2.25,3.5-3.39C254.83,78.82,263.35,93,263.35,93Z" style="fill: rgb(38, 50, 56); transform-origin: 257.059px 89.0962px;" class="animable"></path></g><g id="eln8rqerl7pwq"><path d="M255.33,63.17c-3.51,4.78-6.09,21.22-3.49,26,3.77,6.92,12.64,10.56,19.2,5.41,6.36-5,9.34-26.47,6.19-31.09C272.58,56.69,260.5,56.11,255.33,63.17Z" style="fill: rgb(247, 169, 160); transform-origin: 264.638px 77.5661px;" class="animable"></path></g><g id="eluv709ttn9xi"><path d="M267.86,78.13s-.1,0-.11.09c-.17,1.1-.56,2.34-1.62,2.52a0,0,0,0,0,0,.06C267.37,80.86,267.87,79.21,267.86,78.13Z" style="fill: rgb(38, 50, 56); transform-origin: 266.995px 79.4658px;" class="animable"></path></g><g id="elar0x5ykoh5"><path d="M267.09,76.8c-1.74-.47-2.56,3-.94,3.49S268.56,77.19,267.09,76.8Z" style="fill: rgb(38, 50, 56); transform-origin: 266.571px 78.5461px;" class="animable"></path></g><g id="el67175rn2l5h"><path d="M274,79.34s.07.07.06.12c-.29,1.08-.43,2.37.47,3,0,0,0,.07,0,.06C273.32,82,273.53,80.32,274,79.34Z" style="fill: rgb(38, 50, 56); transform-origin: 274.08px 80.9305px;" class="animable"></path></g><g id="elmi3bvvpzw8"><path d="M275.22,78.43c1.78.27,1.11,3.82-.55,3.57S273.72,78.2,275.22,78.43Z" style="fill: rgb(38, 50, 56); transform-origin: 274.994px 80.2159px;" class="animable"></path></g><g id="elc4ig8e9826s"><path d="M266.12,74.92a13.59,13.59,0,0,0,1.4.48,2.4,2.4,0,0,0,1.53.22.76.76,0,0,0,.48-.8,1.89,1.89,0,0,0-1.38-1.34,2.76,2.76,0,0,0-2-.06A.82.82,0,0,0,266.12,74.92Z" style="fill: rgb(38, 50, 56); transform-origin: 267.591px 74.4611px;" class="animable"></path></g><g id="el4mgr3f3wsqc"><path d="M277,77a13.72,13.72,0,0,1-1.32-.68,2.4,2.4,0,0,1-1.21-1,.76.76,0,0,1,.26-.9,1.89,1.89,0,0,1,1.92.08,2.77,2.77,0,0,1,1.42,1.42A.82.82,0,0,1,277,77Z" style="fill: rgb(38, 50, 56); transform-origin: 276.276px 75.6299px;" class="animable"></path></g><g id="elccv6we0ljpm"><path d="M264.48,87.79c.2.32.38.73.77.85a2.88,2.88,0,0,0,1.24,0,0,0,0,0,1,0,.07A1.5,1.5,0,0,1,265,89a1.19,1.19,0,0,1-.64-1.16C264.36,87.75,264.45,87.75,264.48,87.79Z" style="fill: rgb(38, 50, 56); transform-origin: 265.423px 88.4247px;" class="animable"></path></g><g id="eldf2zd86212"><path d="M266.38,84.79a3.78,3.78,0,0,0,2.1,2.22,4.7,4.7,0,0,0,1.33.37,1.09,1.09,0,0,0,.26,0l.25,0a.28.28,0,0,0,.27-.19h0a.43.43,0,0,0,0-.11h0l0-.1c.22-.83.43-2.13.43-2.13.27.22,1.68,1.29,1.75.84A56.72,56.72,0,0,0,274,74.14a.11.11,0,0,0-.21,0c-.74,3.52-.85,7.14-1.54,10.69a7,7,0,0,0-1.63-.94c-.13,0-.37,2.52-.49,2.89a.11.11,0,0,0,0,0,5.28,5.28,0,0,1-3.57-2.09C266.44,84.63,266.34,84.68,266.38,84.79Z" style="fill: rgb(38, 50, 56); transform-origin: 270.186px 80.7253px;" class="animable"></path></g><g id="elxr04ssfcix8"><path d="M269.41,86.84a4.47,4.47,0,0,1-2.09,1,2,2,0,0,1-1.22-.2c-.82-.43-.65-1.23-.34-1.88a4.56,4.56,0,0,1,.64-1A5.78,5.78,0,0,0,269.41,86.84Z" style="fill: rgb(38, 50, 56); transform-origin: 267.457px 86.3115px;" class="animable"></path></g><g id="elxzmzp93v1w"><path d="M267.32,87.8a2,2,0,0,1-1.22-.2c-.82-.43-.65-1.23-.34-1.88A2.08,2.08,0,0,1,267.32,87.8Z" style="fill: rgb(255, 155, 188); transform-origin: 266.412px 86.7715px;" class="animable"></path></g><g id="elh6twuxjua69"><path d="M253,78.32c2.81.39,3.9-6.46,3.9-6.46s4.39.08,7.62-5.33c0,0,4.78,4.51,9.52,4.59,7.44.13,7.93-8.65,5.62-11.09-3.27-3.44-9.66-1.45-9.66-1.45s-9.69-4.9-14.12,1.43a5.37,5.37,0,0,0-5.94,4.28C248.61,69.28,250.89,78,253,78.32Z" style="fill: rgb(38, 50, 56); transform-origin: 265.214px 67.5536px;" class="animable"></path></g><g id="el1gsa9cqkobx"><path d="M255.73,72.46a9.63,9.63,0,0,0,5.94-1.86,7.23,7.23,0,0,0,2.89-6c0-.12.19-.12.19,0a8.27,8.27,0,0,1-2.5,6.58,6.7,6.7,0,0,1-6.54,1.45C255.6,72.63,255.6,72.46,255.73,72.46Z" style="fill: rgb(38, 50, 56); transform-origin: 260.202px 68.7249px;" class="animable"></path></g><g id="elldw7rb7qnp"><path d="M250.16,61.26c1.76-1.51,4-1.36,6.09-.87.13,0,.07.23,0,.19a6,6,0,0,0-5.88,1.82c-1.41,1.47-1.59,3.64-1.52,5.59A15.21,15.21,0,0,0,253,78.05s0,.11-.07.07a15.2,15.2,0,0,1-4.74-11.05C248.2,65,248.52,62.65,250.16,61.26Z" style="fill: rgb(38, 50, 56); transform-origin: 252.258px 69.0892px;" class="animable"></path></g><g id="el0ahm8u4gp2ut"><path d="M256.64,77.13s-2.28-6-4.94-5.36-1.84,8.81.63,10.53a2.87,2.87,0,0,0,4.11-.55Z" style="fill: rgb(247, 169, 160); transform-origin: 253.347px 77.3251px;" class="animable"></path></g><g id="elrladla9wash"><path d="M252,74.09s-.06,0,0,.07c1.72,1.27,2.28,3.3,2.51,5.32a1.58,1.58,0,0,0-2.19-1c-.05,0,0,.11,0,.12A1.76,1.76,0,0,1,254,79.67a8.81,8.81,0,0,1,.52,1.75c0,.2.37.18.36,0v0C255.58,78.91,254.55,75,252,74.09Z" style="fill: rgb(38, 50, 56); transform-origin: 253.534px 77.8263px;" class="animable"></path></g><g id="elmcs7fzvulfd"><path d="M247.05,70.64s2.42,9.69,3,10.89,3.27,3.34,3.27,3.34,3.15,10.62,3.54,10.92,2.59,1.25,2.73.81-3.11-12.06-3.11-12.06l4.64-12.93-2.39-1.46-4.27,12.79s-2.13-2.42-2.4-3-2.76-9.75-2.76-9.75Z" style="fill: rgb(38, 50, 56); transform-origin: 254.085px 83.4322px;" class="animable"></path></g><g id="elp5173dxf4qb"><path d="M246.33,62.85,244,65.61l1.82,1.86-.76,3.31s4.21,2.41,5.68,2.67,12.11-1.89,12.11-1.89Z" style="fill: rgb(55, 71, 79); transform-origin: 253.425px 68.1609px;" class="animable"></path></g><polygon points="211.49 21.96 210.12 22.8 211.77 23.84 210.49 26.29 214.41 27.99 220.97 27.47 211.49 21.96" style="fill: rgb(38, 50, 56); transform-origin: 215.545px 24.975px;" id="elo05bgcwb1n" class="animable"></polygon><g id="elmy8kok0dsxa"><path d="M262.91,72.63c4.2-.21,13.65-.67,13.74-.76s4.35,1,4.57.95,5.3-4,5.3-4-3.63-8.91-8.85-12.3S260.2,52.06,257.41,53s-14.1,8.83-14.07,9.2S260,72.77,262.91,72.63Z" style="fill: rgb(0, 0, 0); transform-origin: 264.93px 62.7479px;" class="animable"></path></g><g id="elqqbwlxyuie"><path d="M250.93,57.69l3.62-2.24s5,.51,5.86.71a23.73,23.73,0,0,1,3.94,2.48A43.49,43.49,0,0,0,259.16,57C258.45,57,250.93,57.69,250.93,57.69Z" style="fill: rgb(2, 1, 0); opacity: 0.1; transform-origin: 257.64px 57.045px;" class="animable"></path></g><g id="el8ir90s4wdpx"><path d="M261.67,53.8s12.5,3.22,13.65,3.77c3.36,1.6,9.77,12.34,9.77,12.34s-8.78-10.77-10.35-11.31S261.67,53.8,261.67,53.8Z" style="fill: rgb(2, 1, 0); opacity: 0.1; transform-origin: 273.38px 61.855px;" class="animable"></path></g><g id="el9fbjjndfxya"><path d="M247.29,61.35s11.27-.16,12.37,0c3.19.57,11.06,8.14,11.06,8.14s-9.87-7.05-11.32-7.15S247.29,61.35,247.29,61.35Z" style="fill: rgb(2, 1, 0); opacity: 0.1; transform-origin: 259.005px 65.3844px;" class="animable"></path></g><g id="elplbxw7pgf6"><path d="M267.17,60.22s7.65,3.48,8.38,4c1.9,1.48,5.59,8.28,5.59,8.28s-6-6.29-6.95-7.08S267.17,60.22,267.17,60.22Z" style="fill: rgb(2, 1, 0); opacity: 0.1; transform-origin: 274.155px 66.36px;" class="animable"></path></g><g id="elhzhkk498oia"><path d="M264.93,71.38a26.8,26.8,0,0,0,.18-4.64,14.35,14.35,0,0,0-3.67-1.42c-.28.11.79,3.51,1.27,4.65A5.18,5.18,0,0,0,264.93,71.38Z" style="fill: rgb(38, 50, 56); transform-origin: 263.267px 68.35px;" class="animable"></path></g><g id="elna77ianurmn"><path d="M260,68.68c.36-.12-1.67-4.35-2.13-4.56-1.17-.53-3-.92-3.06-.67a30,30,0,0,0,2.86,4.33A11.21,11.21,0,0,0,260,68.68Z" style="fill: rgb(38, 50, 56); transform-origin: 257.426px 66.0263px;" class="animable"></path></g><g id="elliom8a47zsr"><path d="M252.3,63.38a8.58,8.58,0,0,0-3.05-.23c0,.2,4.78,3.67,4.95,3.5A8.36,8.36,0,0,0,252.3,63.38Z" style="fill: rgb(38, 50, 56); transform-origin: 251.725px 64.8799px;" class="animable"></path></g><g id="elq9ka6eni2ee"><path d="M230.09,104c-.63,16.6,3.62,55,8.76,61.6,9.67,12.51,38.2,22.85,48.18,25.57,4.16,1.13,13-27.43,11.19-31.69-1-2.52-37.32-12.62-37.86-14.23S251.15,125,244,105.72C238.06,89.92,230.6,90.37,230.09,104Z" style="fill: rgb(247, 169, 160); transform-origin: 264.244px 142.511px;" class="animable"></path></g><g id="elfgoect6zh8"><path d="M291.93,157.85s13,1.38,21.52,2.68c4.73.73,12.74,2.69,16,4.82,4.84,3.18,23,19.55,19.16,24.05-3.51,4.07-17.36-12-17.36-12s15.41,15,10.29,19.09-18.36-16.1-18.36-16.1,15.48,15.73,9.52,19.15c-4.5,2.59-17.52-15.05-17.52-15.05s13.22,13.61,8.7,16.47c-5,3.15-18-12.37-18-12.37-12.7,5.33-20.93,2.67-26.56.08C277.9,188.06,291.93,157.85,291.93,157.85Z" style="fill: rgb(247, 169, 160); transform-origin: 314.179px 179.616px;" class="animable"></path></g><g id="elsm83xjrx29i"><path d="M326.23,171.9c1.87,1.69,3.78,3.39,5.49,5.25s3.37,3.76,4.91,5.77a42.94,42.94,0,0,1,5.24,8.37c-2.91-5.11-8.95-11.84-10.67-13.69s-3.33-3.79-5.05-5.64C326.11,171.92,326.18,171.86,326.23,171.9Z" style="fill: rgb(38, 50, 56); transform-origin: 334.004px 181.588px;" class="animable"></path></g><g id="elwrdg6o13a1"><path d="M319.42,178c2.3,2.26,4.67,4.42,6.87,6.79s4,4.78,6.08,7.28c.15.19,0,.21-.17,0-2.12-2.42-4.26-4.49-6.41-6.88s-4.2-4.87-6.42-7.17C319.33,178,319.39,177.94,319.42,178Z" style="fill: rgb(38, 50, 56); transform-origin: 325.894px 185.097px;" class="animable"></path></g><g id="el4s28id23fl8"><path d="M312.65,182.14a72.34,72.34,0,0,1,9.7,11.19c.14.2-.06.21-.22,0-3.16-3.78-5.6-6.77-9.6-11.07C312.47,182.2,312.57,182.07,312.65,182.14Z" style="fill: rgb(38, 50, 56); transform-origin: 317.454px 187.802px;" class="animable"></path></g><g id="el8j11duln13w"><path d="M346.49,182a63.62,63.62,0,0,0-15.05-14.87,22.22,22.22,0,0,0-2.95-1.87c-9.93-3.51-20.79-4.78-31.17-6.55q-6.68-2.07-13.31-4.24c-4.41-1.45-8.82-2.89-13.19-4.48-3.53-1.38-7.23-2.45-10.49-4.43a8.39,8.39,0,0,1-1.32-2.38c-1.83-4.27-3.52-8.59-5.15-12.94,2.26,4.94,4.05,10.24,6.8,14.9,3.23,1.84,6.92,2.85,10.41,4.12,8.67,2.94,17.95,5.87,26.43,8.47,4.69.74,9.37,1.54,14,2.44,6.06,1.33,12.45,2.12,18.08,4.91A59.91,59.91,0,0,1,346.49,182Z" style="fill: rgb(38, 50, 56); transform-origin: 300.175px 156.12px;" class="animable"></path></g><g id="elps94scqfgch"><path d="M231.92,135.4l21.94-5.17s-5.41-20.13-12.4-31.86c-6.72-11.27-12.14-8.18-12.67.82C228.32,107.22,231.92,135.4,231.92,135.4Z" style="fill: rgb(0, 0, 0); transform-origin: 241.304px 113.254px;" class="animable"></path></g><g id="el28j1tc7p9wj"><path d="M231.92,135.4l21.94-5.17s-1.25-3.78-6.26-5.37c-5.21-1.65-9.86-4.06-9.43-15.21.24-6.53-7-4.17-8.41,6.49C229.76,116.14,231.34,130.82,231.92,135.4Z" style="fill: rgb(69, 90, 100); transform-origin: 241.81px 120.711px;" class="animable"></path></g><g id="elbxb6iq86l6"><path d="M245.86,106a159.51,159.51,0,0,1,8,24.2,158.4,158.4,0,0,1-8-24.2Z" style="fill: rgb(38, 50, 56); transform-origin: 249.86px 118.1px;" class="animable"></path></g><g id="ellfkjs2awdic"><path d="M231.92,135.4c-.89-4.5-1.48-9.05-2-13.6-.35-2.82-.47-5.7-.82-8.5a31.36,31.36,0,0,0-1.67-4.83c2.8,3.78,2.93,8.7,3.49,13.23s.89,9.11,1,13.7Z" style="fill: rgb(38, 50, 56); transform-origin: 229.675px 121.935px;" class="animable"></path></g><g id="elfzzy3ndkld6"><path d="M227.72,111.92a6.84,6.84,0,0,1,2,4.22,28.29,28.29,0,0,1-2-4.22Z" style="fill: rgb(38, 50, 56); transform-origin: 228.72px 114.03px;" class="animable"></path></g></g><g id="freepik--Lines--inject-44" class="animable" style="transform-origin: 140.885px 174.29px;"><g id="eld00e8w5wzc"><path d="M129.33,172.69c14.17-3.57,28.58-6.5,43-8.74-14.17,3.57-28.58,6.5-43,8.74Z" style="fill: rgb(255, 255, 255); transform-origin: 150.83px 168.32px;" class="animable"></path></g><g id="eljmm1ekrqkeg"><path d="M168.54,104c14.16-3.57,28.58-6.51,43-8.75-14.17,3.58-28.58,6.51-43,8.75Z" style="fill: rgb(255, 255, 255); transform-origin: 190.04px 99.625px;" class="animable"></path></g><g id="elmjhigsc0zdc"><path d="M121.52,253.33c13.33-3.4,26.9-6.17,40.51-8.23-13.34,3.4-26.91,6.16-40.51,8.23Z" style="fill: rgb(38, 50, 56); transform-origin: 141.775px 249.215px;" class="animable"></path></g><g id="el4eyvlz5x4my"><path d="M80.92,219c13.31-3.41,26.86-6.16,40.43-8.23-13.3,3.41-26.85,6.16-40.43,8.23Z" style="fill: rgb(255, 255, 255); transform-origin: 101.135px 214.885px;" class="animable"></path></g><g id="eluqzdscps1sj"><path d="M147.63,118.14c13.31-3.4,26.86-6.16,40.43-8.22-13.3,3.4-26.85,6.16-40.43,8.22Z" style="fill: rgb(255, 255, 255); transform-origin: 167.845px 114.03px;" class="animable"></path></g><g id="elp87euclfv7s"><path d="M70.23,168.37c28.48-6.47,60.3-12.92,89.06-18.11C130.78,156.72,99,163.2,70.23,168.37Z" style="fill: rgb(38, 50, 56); transform-origin: 114.76px 159.315px;" class="animable"></path></g><g id="el49i49uk3f3z"><path d="M139.07,114.47c19.46-4.65,39.2-8.66,58.93-12-19.47,4.65-39.2,8.66-58.93,12Z" style="fill: rgb(0, 0, 0); transform-origin: 168.535px 108.47px;" class="animable"></path></g></g><defs>     <filter id="active" height="200%">         <feMorphology in="SourceAlpha" result="DILATED" operator="dilate" radius="2"></feMorphology>                <feFlood flood-color="#32DFEC" flood-opacity="1" result="PINK"></feFlood>        <feComposite in="PINK" in2="DILATED" operator="in" result="OUTLINE"></feComposite>        <feMerge>            <feMergeNode in="OUTLINE"></feMergeNode>            <feMergeNode in="SourceGraphic"></feMergeNode>        </feMerge>    </filter>    <filter id="hover" height="200%">        <feMorphology in="SourceAlpha" result="DILATED" operator="dilate" radius="2"></feMorphology>                <feFlood flood-color="#ff0000" flood-opacity="0.5" result="PINK"></feFlood>        <feComposite in="PINK" in2="DILATED" operator="in" result="OUTLINE"></feComposite>        <feMerge>            <feMergeNode in="OUTLINE"></feMergeNode>            <feMergeNode in="SourceGraphic"></feMergeNode>        </feMerge>            <feColorMatrix type="matrix" values="0   0   0   0   0                0   1   0   0   0                0   0   0   0   0                0   0   0   1   0 "></feColorMatrix>    </filter></defs></svg>